# xmcd CD database file
#
# Track frame offsets:
#	150
#	21447
#	47345
#	80731
#	117498
#	146759
#	186651
#	212861
#	235749
#	254013
#	281047
#	310936
#
# Disc length: 4763 seconds
#
# Revision: 0
# Processed by: cddbd v1.5.1PL0 Copyright (c) Steve Scherf et al.
# Submitted via: CDex 1.51
#
DISCID=bd12990c
DTITLE=Oliver Jones - Have fingers, Will Travel
DYEAR=1900
DGENRE=Jazz
TTITLE0=D.B.G. Blues
TTITLE1=Yvonne
TTITLE2=Street Of Dreams
TTITLE3=If I Were A Bell
TTITLE4=I'm Thru With Love
TTITLE5=Late AfternoonBlues
TTITLE6=With Out A Song
TTITLE7=Charlie B
TTITLE8=Snowy Peaks
TTITLE9=Beautiful Jayde
TTITLE10=My Romance
TTITLE11=Something For Chuck
EXTD=
EXTT0=
EXTT1=
EXTT2=
EXTT3=
EXTT4=
EXTT5=
EXTT6=
EXTT7=
EXTT8=
EXTT9=
EXTT10=
EXTT11=
PLAYORDER=
